<svg xmlns="http://www.w3.org/2000/svg" viewBox="0 0 640 340" width="640" height="340" role="img"><rect width="640" height="340" fill="#ffffff"/><line x1="64" y1="24" x2="64" y2="284" stroke="#333"/><line x1="64" y1="284" x2="624" y2="284" stroke="#333"/><line x1="64" y1="284.0" x2="624" y2="284.0" stroke="#eee"/><text x="58" y="288.0" font-size="11" text-anchor="end" fill="#555">1</text><line x1="64" y1="219.0" x2="624" y2="219.0" stroke="#eee"/><text x="58" y="223.0" font-size="11" text-anchor="end" fill="#555">1.28</text><line x1="64" y1="154.0" x2="624" y2="154.0" stroke="#eee"/><text x="58" y="158.0" font-size="11" text-anchor="end" fill="#555">1.561</text><line x1="64" y1="89.0" x2="624" y2="89.0" stroke="#eee"/><text x="58" y="93.0" font-size="11" text-anchor="end" fill="#555">1.841</text><line x1="64" y1="24.0" x2="624" y2="24.0" stroke="#eee"/><text x="58" y="28.0" font-size="11" text-anchor="end" fill="#555">2.122</text><line x1="64" y1="284.0" x2="624" y2="284.0" stroke="#c0392b" stroke-dasharray="4 3"/><text x="64.0" y="302" font-size="11" text-anchor="middle" fill="#333">Suomi-NPP</text><text x="344.0" y="302" font-size="11" text-anchor="middle" fill="#333">Suomi-NPP + NOAA-20</text><text x="624.0" y="302" font-size="11" text-anchor="middle" fill="#333">Suomi-NPP + NOAA-20 + NOAA-21</text><path d="M64.0 24.0 L344.0 24.0 L624.0 24.0" fill="none" stroke="#2c6e9b" stroke-width="2"/><circle cx="64.0" cy="24.0" r="3" fill="#2c6e9b"/><circle cx="344.0" cy="24.0" r="3" fill="#2c6e9b"/><circle cx="624.0" cy="24.0" r="3" fill="#2c6e9b"/><rect x="64" y="8" width="10" height="10" fill="#2c6e9b"/><text x="78" y="17" font-size="11" fill="#333">step</text><text x="344.0" y="332" font-size="11" fill="#555" text-anchor="middle">VIIRS included</text><text x="14" y="154.0" font-size="11" fill="#555" transform="rotate(-90 14 154.0)" text-anchor="middle">step ratio (post / pre)</text></svg>
