<svg xmlns="http://www.w3.org/2000/svg" viewBox="0 0 640 340" width="640" height="340" role="img"><rect width="640" height="340" fill="#ffffff"/><line x1="64" y1="24" x2="64" y2="284" stroke="#333"/><line x1="64" y1="284" x2="624" y2="284" stroke="#333"/><line x1="64" y1="284.0" x2="624" y2="284.0" stroke="#eee"/><text x="58" y="288.0" font-size="11" text-anchor="end" fill="#555">0</text><line x1="64" y1="219.0" x2="624" y2="219.0" stroke="#eee"/><text x="58" y="223.0" font-size="11" text-anchor="end" fill="#555">0.2386</text><line x1="64" y1="154.0" x2="624" y2="154.0" stroke="#eee"/><text x="58" y="158.0" font-size="11" text-anchor="end" fill="#555">0.4771</text><line x1="64" y1="89.0" x2="624" y2="89.0" stroke="#eee"/><text x="58" y="93.0" font-size="11" text-anchor="end" fill="#555">0.7157</text><line x1="64" y1="24.0" x2="624" y2="24.0" stroke="#eee"/><text x="58" y="28.0" font-size="11" text-anchor="end" fill="#555">0.9543</text><line x1="64" y1="147.8" x2="624" y2="147.8" stroke="#c0392b" stroke-dasharray="4 3"/><text x="204.0" y="302" font-size="12" text-anchor="middle" fill="#333">cell-level</text><rect x="92.0" y="190.7" width="201.6" height="93.3" fill="#2c6e9b"/><text x="192.8" y="186.7" font-size="10" text-anchor="middle" fill="#333">0.3424</text><text x="484.0" y="302" font-size="12" text-anchor="middle" fill="#333">region-level</text><rect x="372.0" y="47.6" width="201.6" height="236.4" fill="#2c6e9b"/><text x="472.8" y="43.6" font-size="10" text-anchor="middle" fill="#333">0.8675</text><rect x="64" y="8" width="10" height="10" fill="#2c6e9b"/><text x="78" y="17" font-size="11" fill="#333">r²</text><text x="14" y="154.0" font-size="11" fill="#555" transform="rotate(-90 14 154.0)" text-anchor="middle">r² vs burned area</text></svg>
